<?xml version="1.0" encoding="UTF-8"?>
<svg id="_레이어_1" data-name="레이어 1" xmlns="http://www.w3.org/2000/svg" xmlns:xlink="http://www.w3.org/1999/xlink" viewBox="0 0 390 390">
  <defs>
    <style>
      .cls-1 {
        fill: #ff7565;
      }

      .cls-1, .cls-2, .cls-3, .cls-4, .cls-5, .cls-6, .cls-7, .cls-8, .cls-9, .cls-10 {
        stroke-width: 0px;
      }

      .cls-2 {
        fill: #c1c1c1;
      }

      .cls-11 {
        opacity: .7;
      }

      .cls-12 {
        opacity: .9;
      }

      .cls-13 {
        fill: url(#_무제_그라디언트_23);
        stroke: #2b3467;
        stroke-linecap: round;
        stroke-linejoin: round;
        stroke-width: 2.57px;
      }

      .cls-3 {
        fill: #2b3467;
      }

      .cls-4 {
        fill: url(#_무제_그라디언트_23-2);
      }

      .cls-5 {
        fill: #fffdf3;
      }

      .cls-14 {
        opacity: .8;
      }

      .cls-6 {
        fill: #ffe5df;
      }

      .cls-7 {
        fill: #fff;
      }

      .cls-15 {
        opacity: .3;
      }

      .cls-8 {
        fill: #e2e2e2;
      }

      .cls-9 {
        fill: #ff533f;
      }

      .cls-16 {
        filter: url(#luminosity-noclip);
      }

      .cls-17 {
        mask: url(#mask-1);
      }

      .cls-18 {
        mask: url(#mask);
      }

      .cls-19 {
        filter: url(#luminosity-noclip-2);
      }

      .cls-10 {
        fill: #efebda;
      }
    </style>
    <filter id="luminosity-noclip" x="88.3601" y="133.9253" width="218.099" height="128.0912" color-interpolation-filters="sRGB" filterUnits="userSpaceOnUse">
      <feFlood flood-color="#fff" result="bg"/>
      <feBlend in="SourceGraphic" in2="bg"/>
    </filter>
    <linearGradient id="_무제_그라디언트_23" data-name="무제 그라디언트 23" x1="176.8006" y1="240.6267" x2="203.1295" y2="186.1321" gradientUnits="userSpaceOnUse">
      <stop offset=".1284" stop-color="#fff"/>
      <stop offset=".2184" stop-color="#f9f9f9"/>
      <stop offset=".3261" stop-color="#ebebeb"/>
      <stop offset=".4431" stop-color="#d3d3d3"/>
      <stop offset=".5665" stop-color="#b1b1b1"/>
      <stop offset=".6951" stop-color="#858585"/>
      <stop offset=".828" stop-color="#505050"/>
      <stop offset=".9619" stop-color="#121212"/>
      <stop offset="1" stop-color="#000"/>
    </linearGradient>
    <mask id="mask" x="88.3601" y="133.9253" width="218.099" height="128.0912" maskUnits="userSpaceOnUse">
      <g class="cls-16">
        <rect class="cls-13" x="89.6451" y="135.2103" width="215.5291" height="125.5212"/>
      </g>
    </mask>
    <filter id="luminosity-noclip-2" x="131.6368" y="18.5857" width="140.8287" height="186.1387" color-interpolation-filters="sRGB" filterUnits="userSpaceOnUse">
      <feFlood flood-color="#fff" result="bg"/>
      <feBlend in="SourceGraphic" in2="bg"/>
    </filter>
    <linearGradient id="_무제_그라디언트_23-2" data-name="무제 그라디언트 23" x1="206.5351" y1="171.9391" x2="196.1402" y2="32.1864" xlink:href="#_무제_그라디언트_23"/>
    <mask id="mask-1" x="131.6368" y="18.5857" width="140.8287" height="186.1387" maskUnits="userSpaceOnUse">
      <g class="cls-19">
        <rect class="cls-4" x="131.6368" y="18.5857" width="140.8287" height="186.1387"/>
      </g>
    </mask>
  </defs>
  <g>
    <g class="cls-11">
      <circle class="cls-9" cx="326.3304" cy="182.0121" r="25.2976"/>
    </g>
    <g>
      <path class="cls-7" d="m340.6739,194.2066h-28.6869c-.3699,0-.6697-.2996-.6697-.6694s.2998-.6694.6697-.6694h28.6869c.3699,0,.6697.2996.6697.6694s-.2998.6694-.6697.6694Z"/>
      <path class="cls-7" d="m326.1424,184.9454h-11.9719c-.3699,0-.6697-.2996-.6697-.6694s.2998-.6694.6697-.6694h11.9719c.3699,0,.6697.2996.6697.6694s-.2998.6694-.6697.6694Z"/>
      <path class="cls-7" d="m326.1424,189.576h-11.9719c-.3699,0-.6697-.2996-.6697-.6694s.2998-.6694.6697-.6694h11.9719c.3699,0,.6697.2996.6697.6694s-.2998.6694-.6697.6694Z"/>
      <path class="cls-7" d="m316.467,194.2066c-.3699,0-.6697-.2996-.6697-.6694v-9.2612c0-.3699.2998-.6694.6697-.6694s.6697.2996.6697.6694v9.2612c0,.3699-.2998.6694-.6697.6694Z"/>
      <path class="cls-7" d="m323.9965,194.2066c-.3699,0-.6697-.2996-.6697-.6694v-9.2612c0-.3699.2998-.6694.6697-.6694s.6697.2996.6697.6694v9.2612c0,.3699-.2998.6694-.6697.6694Z"/>
      <path class="cls-7" d="m324.6739,178.3948c-1.8847,0-3.418-1.5331-3.418-3.4175s1.5334-3.4178,3.418-3.4178,3.418,1.5331,3.418,3.4178-1.5334,3.4175-3.418,3.4175Zm0-5.4964c-1.1463,0-2.0787.9326-2.0787,2.0789s.9323,2.0787,2.0787,2.0787,2.0787-.9326,2.0787-2.0787-.9323-2.0789-2.0787-2.0789Z"/>
      <path class="cls-7" d="m339.4689,188.4089h-8.6197c-.2059,0-.4009-.0949-.5276-.2574s-.1721-.3744-.122-.5744l3.9905-15.9745s.0005-.0005.0005-.0007c.1134-.4521.5024-.7557.9685-.7557s.8551.3036.9685.7557l3.991,15.9752c.05.2.0048.4118-.122.5744s-.3217.2574-.5276.2574Zm-7.7622-1.3389h6.9047l-3.4523-13.821-3.4523,13.821Z"/>
      <path class="cls-7" d="m335.1591,194.2066c-.3699,0-.6697-.2996-.6697-.6694v-5.7977c0-.3699.2998-.6694.6697-.6694s.6697.2996.6697.6694v5.7977c0,.3699-.2998.6694-.6697.6694Z"/>
    </g>
  </g>
  <path class="cls-6" d="m79.7554,233.0519s12.8606,84.7536,102.6759,75.8023c0,0,23.1793-2.6376,40.7276-19.1748,11.5462-10.881,29.4808-15.8456,47.9341-13.2583,17.7178,2.4841,38.0408-.2099,48.3081-21.0001,22.5062-45.5727-27.535-88.8114-27.535-88.8114,0,0-39.5393-35.2491-123.6929-28.7361-30.2528,2.3414-57.2197,14.4288-73.9461,34.0844-12.1933,14.3286-20.4717,34.2853-14.4715,61.0941Z"/>
  <g>
    <polygon class="cls-5" points="135.6697 153.3947 169.3147 166.2117 205.5374 157.0897 238.4118 171.3373 286.9736 165.3378 264.4336 241.652 211.316 256.3185 180.8592 239.7552 136.9962 243.7058 98.0453 228.252 135.6697 153.3947"/>
    <path class="cls-3" d="m211.3161,257.0711c-.1244,0-.2483-.031-.3594-.0915l-30.257-16.4543-43.6362,3.9304c-.1165.01-.2352-.0067-.3451-.05l-38.951-15.4538c-.1961-.0782-.3506-.2345-.4256-.4318-.0753-.1973-.0639-.4171.0307-.6058l37.6245-74.8574c.1735-.3451.5789-.5036.9404-.3653l33.4233,12.7326,35.9924-9.0641c.1616-.0405.3308-.0267.4833.0391l32.6864,14.1661,48.3581-5.9743c.2545-.03.5024.067.6664.2602.1644.1935.2197.4566.1478.7l-22.5401,76.314c-.0734.2493-.2707.4433-.5215.5124l-53.1174,14.6664c-.0658.0181-.133.0272-.2002.0272Zm-30.4569-18.0687c.1254,0,.2488.0315.3596.0915l30.1898,16.4181,52.4215-14.4743,22.0968-74.8121-47.4224,5.8587c-.1325.0169-.2684-.0029-.3918-.0562l-32.6397-14.1459-35.9746,9.0594c-.149.0381-.307.0291-.4516-.0265l-33.0098-12.5751-36.9503,73.5156,38.0206,15.0849,43.6846-3.9352c.0224-.0019.045-.0029.0674-.0029Z"/>
  </g>
  <g class="cls-18">
    <g>
      <polygon class="cls-10" points="135.6697 153.3947 169.3147 166.2117 205.5374 157.0897 238.4118 171.3373 286.9736 165.3378 264.4336 241.652 211.316 256.3185 180.8592 239.7552 136.9962 243.7058 98.0453 228.252 135.6697 153.3947"/>
      <path class="cls-3" d="m211.3161,256.9457c-.1039,0-.2069-.0257-.2998-.0763l-30.2899-16.4729-43.6741,3.9342c-.0968.0086-.1961-.0057-.2877-.0419l-38.9507-15.4538c-.1637-.0648-.2924-.1954-.3549-.3599-.0627-.1644-.0534-.3475.0257-.5048l37.6245-74.8574c.1442-.2874.4826-.4187.7836-.3043l33.4603,12.7465,36.0311-9.0737c.1325-.0341.2755-.0229.4023.0327l32.7179,14.1797,48.3924-5.9786c.2116-.026.4185.0555.5553.2169.1363.1613.183.3806.123.5832l-22.5401,76.3145c-.0615.2078-.2259.3689-.4347.4266l-53.1174,14.6664c-.0548.0153-.1111.0229-.1668.0229Zm-30.4569-17.818c.1044,0,.2073.0262.2996.0763l30.2346,16.4424,52.5373-14.5062,22.1707-75.0626-47.6126,5.8823c-.1087.0133-.2235-.0026-.326-.0469l-32.6793-14.1628-36.0156,9.0698c-.1256.0317-.2562.0238-.3765-.0222l-33.1157-12.6154-37.0625,73.7394,38.1755,15.1459,43.7143-3.9376c.0188-.0014.0374-.0024.0562-.0024Z"/>
    </g>
  </g>
  <g>
    <polygon class="cls-2" points="98.0453 228.252 98.276 236.4212 137.2242 251.7816 181.0899 247.9244 211.5438 264.3858 268.0448 249.0325 264.4336 241.652 211.316 256.3185 180.8592 239.7552 136.9962 243.7058 98.0453 228.252"/>
    <path class="cls-3" d="m211.544,265.1383c-.1239,0-.2469-.0305-.358-.0906l-30.2553-16.3542-43.6405,3.8379c-.1175.011-.2336-.0067-.3422-.0496l-38.9484-15.3604c-.2803-.1106-.4676-.3775-.4762-.6787l-.2307-8.1692c-.0071-.2531.1134-.4929.3208-.6382.2078-.1449.4735-.1754.7092-.0829l38.7842,15.388,43.6848-3.9352c.1468-.0129.2965.0176.4271.0887l30.1898,16.4181,52.8247-14.5853c.3508-.0977.7174.0701.8761.3947l3.6115,7.3804c.0987.2016.1025.4366.0095.6411-.0925.2045-.2712.357-.4881.4161l-56.5011,15.3532c-.0648.0176-.1311.0262-.1973.0262Zm-30.4541-17.9667c.1246,0,.2476.031.358.0906l30.1891,16.3184,55.3319-15.0358-2.9366-6.001-52.5158,14.5c-.1878.0515-.3885.0291-.5596-.0643l-30.257-16.4548-43.6362,3.9309c-.117.0105-.2355-.0067-.3451-.05l-37.8888-15.0324.1845,6.53,38.3209,15.113,43.6888-3.8418c.0222-.0019.0441-.0029.066-.0029Z"/>
  </g>
  <polygon class="cls-3" points="136.4718 251.8032 136.2392 243.5654 168.6199 165.922 170.0093 166.5016 137.7531 243.8466 137.9766 251.7603 136.4718 251.8032"/>
  <polygon class="cls-3" points="210.7918 264.4072 210.5459 255.7098 210.5854 255.5873 237.6956 171.1074 239.1284 171.5674 212.0578 255.9243 212.2961 264.3643 210.7918 264.4072"/>
  <g class="cls-11">
    <path class="cls-3" d="m181.8314,193.6599c-1.7926,2.1448-2.99,5.0826-2.002,8.9171,0,0,.7482,1.9068,3.5422,3.3785,3.0842,1.6246,5.8013,3.8598,7.8465,6.6827.2737.3778.5623.7801.8662,1.2083,3.1764,4.4748,9.2402,5.9169,12.3366,6.4662,2.3168.411,4.7312.0045,6.7115-1.2664,1.1822-.7587,2.376-1.8967,3.3435-3.6026,2.4962-4.4011,1.9334-9.8993-1.1707-13.8949-3.4254-4.4092-9.7317-10.3095-19.7635-12.0497-4.3605-.7564-8.8723.7649-11.7103,4.1607Z"/>
  </g>
  <path class="cls-3" d="m173.2079,210.1778c-1.5835-.3002-3.2149.0538-4.6284.828-2.8205,1.5449-7.3686,5.2053-1.7441,10.9083,1.9831,2.0108,3.7527,3.0621,5.2864,3.516,3.6035,1.0662,7.1036-1.8622,6.9119-5.6152-.1809-3.5408-1.24-8.7675-5.8258-9.637Z"/>
  <g>
    <polygon class="cls-8" points="286.9736 165.3378 291.2498 172.1592 268.0448 249.0325 264.4336 241.652 286.9736 165.3378"/>
    <path class="cls-3" d="m268.0446,249.7851c-.285,0-.5486-.1621-.6754-.4218l-3.6115-7.3804c-.0829-.1692-.0991-.3632-.0458-.5439l22.5401-76.3145c.0839-.2838.326-.4921.6192-.5324.295-.0381.5829.0951.7402.346l4.2765,6.8215c.1153.184.1454.4092.0829.6173l-23.205,76.8729c-.0896.2965-.3513.5076-.6597.5329-.0205.0014-.041.0024-.0615.0024Zm-2.8065-8.2007l2.6406,5.3956,22.552-74.7108-3.2083-5.1173-21.9843,74.4325Z"/>
  </g>
  <g>
    <g class="cls-12">
      <circle class="cls-9" cx="308.0696" cy="288.2838" r="41.7724"/>
    </g>
    <path class="cls-7" d="m308.0694,315.3543c-14.9266,0-27.0706-12.144-27.0706-27.0706s12.144-27.0706,27.0706-27.0706,27.0711,12.144,27.0711,27.0706-12.144,27.0706-27.0711,27.0706Zm0-51.6321c-13.5434,0-24.5615,11.0181-24.5615,24.5615s11.0181,24.5615,24.5615,24.5615,24.562-11.0181,24.562-24.5615-11.0186-24.5615-24.562-24.5615Z"/>
    <path class="cls-7" d="m307.8111,276.2709c1.0982,0,2.0844.1373,2.959.4118.8742.2745,1.6168.6611,2.2269,1.1592.6101.4986,1.0777,1.0934,1.4032,1.7846.3251.6916.4881,1.4542.4881,2.2879v.3356c0,.4881-.0562.9509-.1678,1.388-.112.4376-.3051.8799-.5796,1.327-.2745.4476-.6511.9256-1.1287,1.4337-.4781.5086-1.0729,1.0882-1.7846,1.7388-.4476.4071-.8036.7579-1.0677,1.0524-.2645.295-.4681.5696-.6101.8236-.1425.2545-.234.5086-.2745.7626-.041.2545-.061.5443-.061.8694,0,.4681-.1783.8341-.5338,1.0982-.3561.2645-.7679.3966-1.2355.3966-.5086,0-.9457-.1268-1.3117-.3813-.3661-.2541-.5491-.6559-.5491-1.205,0-.5286.0305-1.0067.0915-1.4337s.1778-.8389.3508-1.2355c.1725-.3966.4271-.7931.7626-1.1897s.7779-.8389,1.327-1.327c.6301-.5491,1.1335-1.0114,1.51-1.388.3761-.3761.6659-.7169.8694-1.0219.2031-.3051.3356-.5844.3966-.8389.061-.2541.0915-.5338.0915-.8389v-.1525c0-.3251-.061-.6301-.183-.9152-.122-.2846-.3103-.5386-.5643-.7626-.2545-.2235-.5901-.4013-1.0067-.5338-.4171-.132-.9304-.1983-1.5405-.1983-.8136,0-1.5253.122-2.1354.3661s-1.1897.5596-1.7388.9457c-.4071.285-.8084.3813-1.205.2898s-.7374-.3303-1.0219-.7169c-.285-.3661-.4223-.7779-.4118-1.2355.01-.4576.2183-.8389.6254-1.1439.7521-.5896,1.6215-1.0624,2.6082-1.4185.9862-.3556,2.1201-.5338,3.4013-.5338Zm-.3966,18.9133c.6506,0,1.1997.224,1.6473.6711.4471.4476.6711.9967.6711,1.6473,0,.6511-.224,1.1997-.6711,1.6473-.4476.4471-.9967.6711-1.6473.6711-.6511,0-1.2002-.224-1.6473-.6711-.4476-.4476-.6711-.9962-.6711-1.6473,0-.6506.2235-1.1997.6711-1.6473.4471-.4471.9962-.6711,1.6473-.6711Z"/>
  </g>
  <g class="cls-17">
    <path class="cls-9" d="m166.9788,61.9398c-21.4625,21.4625-21.3799,56.3424.1844,77.9067l39.0456,39.0456,38.8612-38.8612c21.4624-21.4624,21.3798-56.3424-.1845-77.9067-21.5642-21.5642-56.4443-21.6468-77.9066-.1844Zm57.8501,57.8501c-10.3365,10.3365-27.1349,10.2967-37.5204-.0888s-10.4252-27.1839-.0888-37.5204,27.1348-10.2966,37.5203.0888,10.4253,27.1839.0888,37.5203Z"/>
  </g>
  <circle class="cls-1" cx="78.6019" cy="249.3301" r="40.5332"/>
  <path class="cls-7" d="m62.1359,263.5959c-.5069,0-1.0021-.1668-1.4154-.4867-.5741-.4433-.9035-1.1134-.9035-1.8389v-25.1545c0-.7255.3294-1.3956.9035-1.8389.5736-.4442,1.3053-.5944,2.0076-.4099l32.9212,8.5887c1.0234.2674,1.7376,1.1921,1.7376,2.2488v7.9771c0,1.0567-.7143,1.9814-1.7371,2.2488l-32.9217,8.5887c-.1964.0515-.3954.0767-.5922.0767Zm.0033-27.798c-.0896,0-.1561.0396-.1918.0672-.046.0353-.1232.1153-.1232.2507v25.1545c0,.1354.0772.2154.1232.2507.0458.0353.1425.0906.2741.0562l32.9212-8.5887c.1394-.0367.2371-.163.2371-.307v-7.9771c0-.1439-.0977-.2703-.2376-.307l-32.9207-8.5887c-.0291-.0076-.0567-.011-.0822-.011Z"/>
  <path class="cls-7" d="m88.2863,265.257h-7.8627c-1.1409,0-2.0691-.928-2.0691-2.0691v-5.0443c0-.4566.3084-.8556.7502-.9709l9.9938-2.6073c.3012-.0786.6208-.0133.8668.1768s.3901.4833.3901.7941v7.6516c0,1.1411-.9283,2.0691-2.0691,2.0691Zm-7.9247-6.338v4.2688c0,.0343.0276.0624.062.0624h7.8627c.0343,0,.062-.0281.062-.0624v-6.3527l-7.9867,2.0839Z"/>
  <path class="cls-7" d="m79.358,259.1469c-.2197,0-.4359-.072-.6134-.2092-.2459-.1902-.3901-.4833-.3901-.7941v-18.9009c0-.3108.1442-.6039.3901-.7941.2459-.1907.5653-.256.8668-.1768l17.0253,4.4419c.4419.1153.7502.5143.7502.9709v10.0172c0,.4566-.3084.8556-.7502.9709l-17.0253,4.4419c-.0837.0219-.1687.0324-.2533.0324Zm1.0036-18.6054v16.3032l15.0181-3.9185v-8.4662l-15.0181-3.9185Z"/>
  <g class="cls-15">
    <polygon class="cls-9" points="65.386 68.8903 43.5907 63.7256 50.0156 85.1832 65.386 68.8903"/>
    <path class="cls-9" d="m49.777,86.1899l-6.9388-23.1743,23.5389,5.5779-16.6001,17.5963Zm-5.4335-21.7543l5.9106,19.741,14.1406-14.9895-20.0513-4.7514Z"/>
  </g>
  <g class="cls-14">
    <path class="cls-9" d="m87.0151,70.2619l-25.8075-14.9002,25.8075-14.8999v29.8001Zm-22.4862-14.9002l20.8256,12.0236v-24.047l-20.8256,12.0234Z"/>
  </g>
  <g class="cls-15">
    <path class="cls-9" d="m214.1565,342.0841l8.4776-15.1221,8.857,14.9023-17.3346.2197Zm8.5034-13.0858l-6.7531,12.0458,13.8084-.1749-7.0553-11.8709Z"/>
  </g>
  <g class="cls-14">
    <polygon class="cls-9" points="259.2474 333.4458 237.0599 327.1074 242.6644 349.4915 259.2474 333.4458"/>
  </g>
</svg>